<svg xmlns="http://www.w3.org/2000/svg" width="200" viewBox="0 0 375 375" height="200" version="1.0"><defs><clipPath id="a"><path d="M 65.96875 146 L 142.46875 146 L 142.46875 243.464844 L 65.96875 243.464844 Z M 65.96875 146"/></clipPath></defs><g clip-path="url(#a)"><path fill="#8C52FF" d="M 104.222656 167.121094 L 86.59375 167.121094 L 86.59375 187.6875 L 104.222656 187.6875 C 113.941406 187.6875 121.847656 195.574219 121.847656 205.265625 C 121.847656 214.960938 113.941406 222.847656 104.222656 222.847656 C 94.503906 222.847656 86.59375 214.960938 86.59375 205.265625 L 86.59375 187.6875 L 65.972656 187.6875 L 65.972656 205.265625 C 65.972656 226.300781 83.132812 243.414062 104.222656 243.414062 C 125.3125 243.414062 142.472656 226.300781 142.472656 205.265625 C 142.472656 184.234375 125.3125 167.121094 104.222656 167.121094 Z M 86.59375 146.019531 L 86.59375 167.121094 L 65.972656 167.121094 L 65.972656 146.019531 L 86.59375 146.019531"/></g><g fill="#8C52FF"><g><g><path d="M 61.453125 -26.328125 C 61.453125 -16.503906 58.96875 -9.507812 54 -5.34375 C 49.03125 -1.175781 41.929688 0.90625 32.703125 0.90625 C 22.335938 0.90625 14.953125 -1.488281 10.546875 -6.28125 C 6.148438 -11.082031 3.953125 -18.363281 3.953125 -28.125 L 3.953125 -64.59375 C 3.953125 -65.257812 4.101562 -65.769531 4.40625 -66.125 C 4.707031 -66.488281 5.125 -66.671875 5.65625 -66.671875 L 22.734375 -66.671875 C 23.804688 -66.671875 24.34375 -66.039062 24.34375 -64.78125 L 24.34375 -25.96875 C 24.34375 -21.53125 25.195312 -18.320312 26.90625 -16.34375 C 28.613281 -14.375 31.054688 -13.390625 34.234375 -13.390625 C 37.347656 -13.390625 39.863281 -14.375 41.78125 -16.34375 C 43.695312 -18.320312 44.65625 -21.617188 44.65625 -26.234375 L 44.65625 -64.59375 C 44.65625 -65.976562 45.222656 -66.671875 46.359375 -66.671875 L 59.84375 -66.671875 C 60.914062 -66.671875 61.453125 -66.039062 61.453125 -64.78125 Z M 61.453125 -26.328125" transform="translate(144.667 241.027)"/></g></g></g><g fill="#8C52FF"><g><g><path d="M 6.734375 0 C 6.140625 0 5.644531 -0.191406 5.25 -0.578125 C 4.863281 -0.972656 4.671875 -1.441406 4.671875 -1.984375 L 4.671875 -64.328125 C 4.671875 -64.984375 4.878906 -65.535156 5.296875 -65.984375 C 5.722656 -66.441406 6.265625 -66.671875 6.921875 -66.671875 L 33.6875 -66.671875 C 43.03125 -66.671875 50.113281 -65.1875 54.9375 -62.21875 C 59.757812 -59.25 62.171875 -54.863281 62.171875 -49.0625 C 62.171875 -45.882812 61.300781 -43.203125 59.5625 -41.015625 C 57.832031 -38.828125 54.78125 -36.71875 50.40625 -34.6875 C 50.28125 -34.625 50.21875 -34.515625 50.21875 -34.359375 C 50.21875 -34.210938 50.28125 -34.109375 50.40625 -34.046875 C 55.257812 -32.253906 58.703125 -30.128906 60.734375 -27.671875 C 62.773438 -25.210938 63.796875 -22.039062 63.796875 -18.15625 C 63.796875 -11.976562 61.441406 -7.40625 56.734375 -4.4375 C 52.035156 -1.476562 44.832031 0 35.125 0 Z M 35.125 -40.609375 C 37.226562 -40.609375 38.90625 -41.175781 40.15625 -42.3125 C 41.414062 -43.457031 42.046875 -44.925781 42.046875 -46.71875 C 42.046875 -48.632812 41.328125 -50.191406 39.890625 -51.390625 C 38.453125 -52.585938 36.65625 -53.1875 34.5 -53.1875 L 27.140625 -53.1875 C 26.359375 -53.1875 25.816406 -53.050781 25.515625 -52.78125 C 25.210938 -52.507812 25.0625 -52.046875 25.0625 -51.390625 L 25.0625 -42.59375 C 25.0625 -41.875 25.179688 -41.363281 25.421875 -41.0625 C 25.660156 -40.757812 26.050781 -40.609375 26.59375 -40.609375 Z M 34.6875 -13.484375 C 37.132812 -13.484375 39.0625 -14.171875 40.46875 -15.546875 C 41.882812 -16.921875 42.59375 -18.535156 42.59375 -20.390625 C 42.59375 -22.253906 41.898438 -23.785156 40.515625 -24.984375 C 39.140625 -26.179688 37.34375 -26.78125 35.125 -26.78125 L 27.140625 -26.78125 C 26.359375 -26.78125 25.816406 -26.628906 25.515625 -26.328125 C 25.210938 -26.023438 25.0625 -25.546875 25.0625 -24.890625 L 25.0625 -15.453125 C 25.0625 -14.734375 25.179688 -14.222656 25.421875 -13.921875 C 25.660156 -13.628906 26.050781 -13.484375 26.59375 -13.484375 Z M 34.6875 -13.484375" transform="translate(210.07 241.027)"/></g></g></g><g fill="#8C52FF"><g><g><path d="M 4.671875 -64.59375 C 4.671875 -65.257812 4.820312 -65.769531 5.125 -66.125 C 5.425781 -66.488281 5.84375 -66.671875 6.375 -66.671875 L 23.453125 -66.671875 C 24.523438 -66.671875 25.0625 -66.039062 25.0625 -64.78125 L 25.0625 -16 C 25.0625 -15.519531 25.132812 -15.1875 25.28125 -15 C 25.4375 -14.820312 25.722656 -14.734375 26.140625 -14.734375 L 53.1875 -14.734375 C 54.5625 -14.734375 55.25 -14.164062 55.25 -13.03125 L 55.25 -1.984375 C 55.25 -1.378906 55.054688 -0.894531 54.671875 -0.53125 C 54.285156 -0.175781 53.734375 0 53.015625 0 L 7.09375 0 C 6.195312 0 5.566406 -0.175781 5.203125 -0.53125 C 4.847656 -0.894531 4.671875 -1.46875 4.671875 -2.25 Z M 4.671875 -64.59375" transform="translate(276.461 241.027)"/></g></g></g></svg>