<svg width="780" height="661" viewBox="0 0 780 661" fill="none" xmlns="http://www.w3.org/2000/svg">
<g id="heroImage 1" filter="url(#filter0_i_0_18)">
<path id="Vector" d="M70.4952 295.927C56.0548 307.742 79.6845 411.451 79.6845 411.451C79.6845 411.451 84.9356 569.639 96.0941 576.859C107.253 584.079 132.195 576.203 142.041 574.89C151.886 573.577 143.354 475.776 128.913 439.675C114.473 403.574 125.631 351.064 125.631 351.064L203.741 366.16C203.741 366.16 156.481 406.2 158.45 414.733C160.42 423.266 210.961 452.146 220.15 453.459C229.34 454.772 247.062 400.949 262.815 364.191C262.815 319 155.169 303.804 155.169 303.804L138.103 271.641C138.103 271.641 84.9356 284.113 70.4952 295.927Z" fill="#2F2E41"/>
<path id="Vector_2" d="M109.698 579.583C109.698 579.583 104.935 596.254 109.698 596.254C114.461 596.254 123.193 601.017 136.688 599.429C150.184 597.841 146.215 581.171 136.688 578.789C127.162 576.407 129.544 557.355 129.544 557.355C126.368 551.004 111.285 558.943 111.285 558.943L109.698 579.583Z" fill="#2F2E41"/>
<path id="Vector_3" d="M177.32 447.016C177.32 447.016 169.148 462.307 173.804 463.312C178.46 464.316 185.991 470.814 199.518 472.108C213.045 473.402 212.681 456.269 203.871 451.932C195.061 447.595 201.407 429.473 201.407 429.473C199.642 422.596 183.224 427.175 183.224 427.175L177.32 447.016Z" fill="#2F2E41"/>
<path id="Vector_4" d="M79.3563 153.821C80.669 156.446 74.7616 189.265 74.7616 189.265L80.0127 198.455C80.0127 198.455 110.206 186.64 105.612 184.671C101.017 182.701 101.673 158.415 101.673 158.415C101.673 158.415 78.0435 151.195 79.3563 153.821Z" fill="#FFB9B9"/>
<path id="Vector_5" d="M90.7208 163.937C112.948 163.937 130.966 145.919 130.966 123.692C130.966 101.465 112.948 83.4464 90.7208 83.4464C68.494 83.4464 50.4755 101.465 50.4755 123.692C50.4755 145.919 68.494 163.937 90.7208 163.937Z" fill="#2F2E41"/>
<path id="Vector_6" d="M87.9453 102.669C97.1426 102.669 104.598 95.2129 104.598 86.0155C104.598 76.8182 97.1426 69.3623 87.9453 69.3623C78.7479 69.3623 71.2921 76.8182 71.2921 86.0155C71.2921 95.2129 78.7479 102.669 87.9453 102.669Z" fill="#2F2E41"/>
<path id="Vector_7" d="M95.231 93.5583C95.8073 93.6181 96.3863 93.6482 96.9658 93.6483C99.1527 93.6483 101.318 93.2176 103.339 92.3807C105.359 91.5438 107.195 90.3171 108.741 88.7707C110.288 87.2243 111.514 85.3885 112.351 83.368C113.188 81.3475 113.619 79.182 113.619 76.9951C113.619 74.8081 113.188 72.6426 112.351 70.6221C111.514 68.6017 110.288 66.7658 108.741 65.2194C107.195 63.6731 105.359 62.4464 103.339 61.6095C101.318 60.7726 99.1527 60.3418 96.9658 60.3418C96.3863 60.342 95.8073 60.372 95.231 60.4319C99.325 60.8608 103.115 62.7908 105.87 65.8494C108.625 68.9081 110.15 72.8786 110.15 76.9951C110.15 81.1115 108.625 85.0821 105.87 88.1407C103.115 91.1994 99.325 93.1293 95.231 93.5583V93.5583Z" fill="#2F2E41"/>
<path id="Vector_8" d="M91.8276 170.887C107.053 170.887 119.396 158.544 119.396 143.319C119.396 128.093 107.053 115.75 91.8276 115.75C76.6022 115.75 64.2595 128.093 64.2595 143.319C64.2595 158.544 76.6022 170.887 91.8276 170.887Z" fill="#FFB9B9"/>
<path id="Vector_9" d="M52.1163 185.655C43.5833 187.624 29.1429 208.629 29.1429 208.629L52.1163 231.602C52.1163 231.602 68.5259 293.302 70.4951 295.927C83.3956 313.128 141.384 274.923 141.384 274.923C141.384 274.923 139.087 256.216 140.4 247.027C141.662 238.189 135.477 220.443 135.477 220.443C135.477 220.443 157.138 211.254 152.543 202.065C147.948 192.875 119.724 171.871 107.909 179.091C96.0941 186.312 72.4643 179.091 72.4643 179.091C72.4643 179.091 60.6493 183.686 52.1163 185.655Z" fill="#E6E6E6"/>
<path id="Vector_10" d="M219.822 317.916C219.822 317.916 257.236 350.079 266.425 343.515C275.615 336.951 230.981 313.978 230.981 313.978L219.822 317.916Z" fill="#FFB9B9"/>
<path id="Vector_11" d="M51.7882 306.758C57.0393 312.665 81.9819 297.568 78.7841 290.864C75.5864 284.16 55.7265 297.568 55.7265 297.568C55.7265 297.568 46.5372 300.85 51.7882 306.758Z" fill="#FFB9B9"/>
<path id="Vector_12" d="M52.1164 217.818L24.5484 269.016C24.5484 269.016 56.0547 295.271 59.993 295.927C63.9312 296.584 52.1164 313.65 52.1164 313.65C52.1164 313.65 16.6717 288.707 2.88771 276.236C-10.8963 263.765 29.143 208.629 29.143 208.629L40.9579 201.408L52.1164 217.818Z" fill="#E6E6E6"/>
<path id="Vector_13" d="M132.195 215.849L164.358 265.734C164.358 265.734 213.587 320.87 220.15 323.495C226.714 326.121 234.591 313.65 234.591 313.65L175.516 242.104L153.199 202.065L144.666 198.783L132.195 215.849Z" fill="#E6E6E6"/>
<path id="Vector_14" d="M90.7208 127.217C106.05 127.217 118.476 119.761 118.476 110.564C118.476 101.367 106.05 93.9108 90.7208 93.9108C75.3919 93.9108 62.9654 101.367 62.9654 110.564C62.9654 119.761 75.3919 127.217 90.7208 127.217Z" fill="#2F2E41"/>
<path id="Vector_15" d="M168.584 469.876C167.674 469.877 166.802 470.239 166.159 470.882C165.516 471.525 165.154 472.398 165.153 473.307V590.332C165.154 591.242 165.516 592.114 166.159 592.757C166.802 593.401 167.674 593.762 168.584 593.763H567.619C568.529 593.762 569.401 593.4 570.044 592.757C570.687 592.114 571.049 591.242 571.05 590.332V473.307C571.049 472.398 570.687 471.525 570.044 470.882C569.401 470.239 568.529 469.877 567.619 469.876L168.584 469.876Z" fill="#E6E6E6"/>
<path id="Vector_16" d="M173.751 585.165H562.452V478.474H173.751V585.165Z" fill="white"/>
<path id="Vector_17" d="M513.388 563.032C512.641 563.031 511.901 563.177 511.211 563.462C510.521 563.748 509.893 564.166 509.365 564.694C508.836 565.222 508.417 565.849 508.131 566.539C507.845 567.229 507.698 567.968 507.698 568.715C507.698 569.462 507.845 570.202 508.131 570.892C508.417 571.582 508.836 572.209 509.365 572.737C509.893 573.264 510.521 573.683 511.211 573.968C511.901 574.253 512.641 574.4 513.388 574.399H536.122C537.63 574.399 539.075 573.8 540.141 572.734C541.207 571.668 541.806 570.223 541.806 568.715C541.806 567.208 541.207 565.762 540.141 564.696C539.075 563.63 537.63 563.032 536.122 563.032H513.388Z" fill="#6C63FF"/>
<path id="Vector_18" d="M541.806 552.007H279.368V553.503H541.806V552.007Z" fill="#E6E6E6"/>
<path id="LastCoin" d="M224.51 564.923C242.792 564.923 257.613 550.102 257.613 531.82C257.613 513.537 242.792 498.716 224.51 498.716C206.227 498.716 191.406 513.537 191.406 531.82C191.406 550.102 206.227 564.923 224.51 564.923Z" fill="#6C63FF"/>
<path id="Vector_19" d="M279.782 543.657L278.953 542.413L306.224 524.232L324.925 533.208L351.823 516.023L405.331 538.848L447.942 517.917L489.319 534.691L541.31 488.642L542.302 489.762L489.616 536.426L448 519.554L405.375 540.493L351.963 517.709L325.029 534.918L306.345 525.95L279.782 543.657Z" fill="#3F3D56"/>
<path id="Vector_20" d="M284.228 563.813C283.589 563.813 282.956 563.938 282.366 564.182C281.775 564.426 281.239 564.783 280.787 565.235C280.335 565.686 279.977 566.222 279.732 566.812C279.487 567.402 279.361 568.035 279.361 568.673C279.361 569.312 279.487 569.945 279.732 570.535C279.977 571.125 280.335 571.661 280.787 572.112C281.239 572.564 281.775 572.921 282.366 573.165C282.956 573.409 283.589 573.534 284.228 573.533H335.07C336.358 573.532 337.593 573.019 338.503 572.108C339.413 571.197 339.924 569.961 339.924 568.673C339.924 567.386 339.413 566.15 338.503 565.239C337.593 564.328 336.358 563.815 335.07 563.813H284.228Z" fill="#E6E6E6"/>
<path id="LastCoinLogo" d="M237.153 517.01H242.326L231.563 527.662C229.682 529.515 227.148 530.554 224.508 530.554C221.868 530.554 219.334 529.515 217.454 527.662L206.692 517.01H211.865L220.041 525.102C221.232 526.276 222.837 526.934 224.509 526.934C226.181 526.934 227.786 526.276 228.977 525.102L237.153 517.01ZM211.799 546.629H206.627L217.456 535.912C219.336 534.059 221.87 533.02 224.51 533.02C227.15 533.02 229.684 534.059 231.564 535.912L242.393 546.629H237.22L228.977 538.472C227.786 537.298 226.181 536.64 224.509 536.64C222.837 536.64 221.232 537.298 220.041 538.472L211.799 546.629Z" fill="white"/>
<path id="Vector_21" d="M220.545 95.0339C219.635 95.035 218.763 95.3968 218.12 96.0401C217.477 96.6833 217.115 97.5554 217.114 98.4651V215.49C217.115 216.4 217.477 217.272 218.12 217.915C218.763 218.558 219.635 218.92 220.545 218.921H619.58C620.49 218.92 621.362 218.558 622.005 217.915C622.648 217.272 623.01 216.4 623.011 215.49V98.465C623.01 97.5554 622.648 96.6833 622.005 96.0401C621.362 95.3968 620.49 95.035 619.58 95.0339L220.545 95.0339Z" fill="#E6E6E6"/>
<path id="Vector_22" d="M225.712 210.323H614.413V103.632H225.712V210.323Z" fill="white"/>
<path id="Vector_23" d="M565.349 188.19C563.842 188.19 562.396 188.788 561.33 189.854C560.265 190.92 559.666 192.366 559.666 193.873C559.666 195.38 560.265 196.826 561.33 197.892C562.396 198.958 563.842 199.557 565.349 199.557H588.083C589.591 199.557 591.036 198.958 592.102 197.892C593.168 196.826 593.767 195.38 593.767 193.873C593.767 192.366 593.168 190.92 592.102 189.854C591.036 188.788 589.591 188.19 588.083 188.19H565.349Z" fill="#6C63FF"/>
<path id="Vector_24" d="M593.767 177.165H331.329V178.661H593.767V177.165Z" fill="#E6E6E6"/>
<path id="Bitcoin" d="M276.471 190.081C294.754 190.081 309.575 175.26 309.575 156.978C309.575 138.695 294.754 123.874 276.471 123.874C258.188 123.874 243.367 138.695 243.367 156.978C243.367 175.26 258.188 190.081 276.471 190.081Z" fill="#6C63FF"/>
<path id="Vector_25" d="M331.743 168.815L330.914 167.57L358.185 149.39L376.886 158.366L403.784 141.181L404.148 141.336L457.292 164.006L499.903 143.075L541.28 159.849L593.271 113.799L594.263 114.919L541.577 161.583L499.961 144.712L457.336 165.651L403.925 142.867L376.99 160.075L358.306 151.106L331.743 168.815Z" fill="#3F3D56"/>
<path id="Vector_26" d="M336.189 188.971C334.901 188.973 333.666 189.486 332.756 190.397C331.846 191.308 331.335 192.543 331.335 193.831C331.335 195.119 331.846 196.354 332.756 197.266C333.666 198.177 334.901 198.69 336.189 198.691H387.031C388.32 198.691 389.557 198.179 390.468 197.268C391.379 196.356 391.891 195.12 391.891 193.831C391.891 192.542 391.379 191.306 390.468 190.395C389.557 189.483 388.32 188.971 387.031 188.971H336.189Z" fill="#E6E6E6"/>
<path id="BitLogo" d="M289.79 153.114C290.409 148.971 287.255 146.744 282.942 145.259L284.341 139.647L280.924 138.796L279.562 144.26C278.665 144.036 277.743 143.825 276.827 143.616L278.198 138.116L274.784 137.264L273.385 142.874C272.641 142.705 271.912 142.538 271.203 142.361L271.207 142.344L266.496 141.168L265.588 144.816C265.588 144.816 268.122 145.397 268.069 145.433C268.541 145.489 268.973 145.729 269.271 146.101C269.568 146.472 269.708 146.946 269.66 147.419L268.067 153.812C268.187 153.842 268.306 153.88 268.422 153.926L268.062 153.837L265.827 162.792C265.778 162.948 265.698 163.093 265.593 163.219C265.488 163.344 265.359 163.448 265.213 163.523C265.068 163.599 264.909 163.645 264.745 163.658C264.582 163.672 264.418 163.653 264.262 163.603C264.296 163.653 261.779 162.984 261.779 162.984L260.083 166.895L264.529 168.003C265.356 168.21 266.167 168.427 266.963 168.631L265.55 174.308L268.962 175.159L270.363 169.544C271.294 169.797 272.199 170.03 273.084 170.25L271.689 175.839L275.105 176.691L276.518 171.026C282.343 172.128 286.724 171.683 288.565 166.416C290.051 162.174 288.492 159.727 285.428 158.131C287.66 157.614 289.341 156.146 289.789 153.114L289.79 153.114ZM281.985 164.058C280.928 168.3 273.787 166.007 271.471 165.432L273.347 157.912C275.662 158.49 283.086 159.634 281.986 164.058H281.985ZM283.04 153.053C282.077 156.911 276.133 154.951 274.204 154.47L275.904 147.65C277.833 148.131 284.044 149.028 283.04 153.053V153.053Z" fill="white"/>
<path id="Vector_27" d="M377.534 282.455C376.624 282.456 375.752 282.818 375.109 283.461C374.466 284.104 374.104 284.976 374.103 285.886V402.911C374.104 403.821 374.466 404.693 375.109 405.336C375.752 405.979 376.624 406.341 377.534 406.342H776.569C777.479 406.341 778.351 405.979 778.994 405.336C779.637 404.693 779.999 403.821 780 402.911V285.886C779.999 284.976 779.637 284.104 778.994 283.461C778.351 282.818 777.479 282.456 776.569 282.455L377.534 282.455Z" fill="#E6E6E6"/>
<path id="Vector_28" d="M382.701 397.744H771.401V291.053H382.701V397.744Z" fill="white"/>
<path id="Vector_29" d="M722.338 375.611C720.831 375.611 719.385 376.209 718.319 377.275C717.253 378.341 716.654 379.787 716.654 381.294C716.654 382.802 717.253 384.247 718.319 385.313C719.385 386.379 720.831 386.978 722.338 386.978H745.072C746.579 386.978 748.025 386.379 749.091 385.313C750.157 384.247 750.756 382.802 750.756 381.294C750.756 379.787 750.157 378.341 749.091 377.275C748.025 376.209 746.579 375.611 745.072 375.611H722.338V375.611Z" fill="#6C63FF"/>
<path id="Vector_30" d="M750.756 364.586H488.317V366.082H750.756V364.586Z" fill="#E6E6E6"/>
<path id="Etherium" d="M433.46 377.502C451.742 377.502 466.563 362.681 466.563 344.399C466.563 326.116 451.742 311.295 433.46 311.295C415.177 311.295 400.356 326.116 400.356 344.399C400.356 362.681 415.177 377.502 433.46 377.502Z" fill="#6C63FF"/>
<path id="Vector_31" d="M488.732 356.236L487.902 354.992L515.173 336.811L533.875 345.788L560.773 328.603L561.137 328.757L614.281 351.428L656.892 330.496L698.269 347.27L750.26 301.221L751.252 302.341L698.566 349.005L656.95 332.133L614.325 353.072L560.914 330.288L533.978 347.496L515.295 338.528L488.732 356.236Z" fill="#3F3D56"/>
<path id="Vector_32" d="M493.177 376.392C491.888 376.392 490.652 376.905 489.741 377.816C488.83 378.727 488.317 379.964 488.317 381.252C488.317 382.541 488.83 383.778 489.741 384.689C490.652 385.6 491.888 386.112 493.177 386.112H544.02C545.309 386.112 546.545 385.6 547.457 384.689C548.368 383.778 548.88 382.541 548.88 381.252C548.88 379.964 548.368 378.727 547.457 377.816C546.545 376.905 545.309 376.392 544.02 376.392H493.177Z" fill="#E6E6E6"/>
<path id="Vector_33" d="M433.456 366.216L446.857 347.343L433.456 355.256L420.063 347.343L433.455 366.216H433.456Z" fill="white"/>
<path id="EtheriumLogo" d="M433.455 352.72H433.456L446.849 344.804L433.456 322.581H433.455L420.063 344.804L433.455 352.72Z" fill="white"/>
</g>
<defs>
<filter id="filter0_i_0_18" x="0" y="0" width="780" height="664.095" filterUnits="userSpaceOnUse" color-interpolation-filters="sRGB">
<feFlood flood-opacity="0" result="BackgroundImageFix"/>
<feBlend mode="normal" in="SourceGraphic" in2="BackgroundImageFix" result="shape"/>
<feColorMatrix in="SourceAlpha" type="matrix" values="0 0 0 0 0 0 0 0 0 0 0 0 0 0 0 0 0 0 127 0" result="hardAlpha"/>
<feOffset dy="4"/>
<feGaussianBlur stdDeviation="2"/>
<feComposite in2="hardAlpha" operator="arithmetic" k2="-1" k3="1"/>
<feColorMatrix type="matrix" values="0 0 0 0 0 0 0 0 0 0 0 0 0 0 0 0 0 0 0.25 0"/>
<feBlend mode="normal" in2="shape" result="effect1_innerShadow_0_18"/>
</filter>
</defs>
</svg>
